<?xml version="1.0" ?><svg id="katman_1" style="enable-background:new 0 0 512 512;" version="1.1" viewBox="0 0 512 512" xml:space="preserve" xmlns="http://www.w3.org/2000/svg" xmlns:xlink="http://www.w3.org/1999/xlink"><style type="text/css">
	.st0{fill:#E67D21;}
	.st1{fill:#D35415;}
	.st2{fill:#FFFFFF;}
</style><g><g><circle class="st0" cx="256" cy="256" r="250"/></g><path class="st1" d="M502.6,297.1c-0.2-0.3-0.4-0.5-0.7-0.8c-44.9-44.8-89.7-89.7-134.6-134.5c-5.3-5.3-11-10.2-17.1-14.6   c-27.8-20.1-59.1-29.4-88.1-29.8c-18.6,0-31,1.4-44.5,4.8c-30,7.4-55.7,22.2-76.5,45.2c-20.6,22.7-32.2,49.3-34.1,79.9   c-1,16.4,1.1,32.4,6.4,47.9c6.7,20.1,17.9,37.4,32.8,52.3c51.1,51.1,102.3,102.3,153.4,153.4c0.3,0.3,0.6,0.5,0.8,0.9   c0.1,0.1,0.2,0.2,0.3,0.3C404.1,483.4,485.4,401.1,502.6,297.1z"/><g><path class="st2" d="M382.2,395c-0.8,0-1.7-0.1-2.5-0.5l-52.3-19.6c-21.8,10.8-46.4,16.5-71.4,16.5c-39.9,0-77.5-14.2-105.8-40    C121.7,325.6,106,291,106,254.2s15.7-71.3,44.2-97.3c28.3-25.8,65.9-40,105.8-40s77.5,14.2,105.8,40    c28.5,25.9,44.2,60.5,44.2,97.3c0,30-10.9,59.4-30.7,83.2l13.8,48.4c0.7,2.6,0,5.4-2,7.3C385.7,394.3,384,395,382.2,395z     M256,131.4c-74.8,0-135.6,55.1-135.6,122.8S181.2,377.1,256,377.1c23.8,0,47.2-5.7,67.6-16.4c1.8-0.9,3.9-1.1,5.9-0.4l41.9,15.7    l-11-38.4c-0.7-2.4-0.1-4.9,1.5-6.7c19.4-22,29.7-48.5,29.7-76.7C391.6,186.5,330.8,131.4,256,131.4z"/><g><path class="st2" d="M276.3,230.7l-21,72.7c-1.2,4.2-1.7,6.9-1.7,8.2c0,0.8,0.3,1.4,0.9,2.1c0.6,0.6,1.3,1,1.9,1     c1.2,0,2.3-0.5,3.5-1.5c3.1-2.5,6.8-7.1,11-13.7l3.5,2c-10.3,17.9-21.2,26.9-32.8,26.9c-4.4,0-8-1.2-10.6-3.7     c-2.6-2.5-3.9-5.6-3.9-9.5c0-2.5,0.6-5.7,1.7-9.6l14.2-48.9c1.4-4.7,2-8.3,2-10.6c0-1.5-0.6-2.8-1.9-4c-1.3-1.2-3.1-1.7-5.3-1.7     c-1,0-2.3,0-3.7,0.1l1.3-4.1l34.7-5.6H276.3z M269.9,183.6c4.2,0,7.8,1.5,10.7,4.4c2.9,2.9,4.3,6.5,4.3,10.6     c0,4.2-1.5,7.7-4.4,10.6c-2.9,2.9-6.5,4.4-10.6,4.4c-4.1,0-7.6-1.5-10.5-4.4c-2.9-2.9-4.4-6.5-4.4-10.6c0-4.2,1.4-7.7,4.3-10.6     C262.2,185.1,265.8,183.6,269.9,183.6z"/></g></g></g></svg>