<?xml version="1.0" ?><svg id="katman_1" style="enable-background:new 0 0 512 512;" version="1.1" viewBox="0 0 512 512" xml:space="preserve" xmlns="http://www.w3.org/2000/svg" xmlns:xlink="http://www.w3.org/1999/xlink"><style type="text/css">
	.st0{fill:#905AA1;}
	.st1{fill:#7F4997;}
	.st2{fill:#FFFFFF;}
</style><g><g><circle class="st0" cx="256" cy="256" r="250"/></g><path class="st1" d="M505.5,240.4c-42.3-42.3-84.6-84.6-126.9-126.9c-8.2-8.2-17.9-10.4-28.8-6.4c-42.2,15.6-84.4,31.2-126.7,46.7   c-9.7,3.6-17.8,12.8-17.8,25.6c0.1,46.7,0,93.4,0,140.1c0,1,0,1.9,0,3.2c-0.6-0.3-0.8-0.3-1-0.4c-9.1-5.6-18.9-6.6-29.1-4.4   c-24.8,5.3-44.4,28.3-46.5,50.7c-1.1,11.7,1.8,22,10.3,30.5c35.6,35.6,71.2,71.2,106.8,106.9c3.4,0.1,6.8,0.3,10.2,0.3   c138.1,0,250-111.9,250-250C506,250.8,505.8,245.6,505.5,240.4z"/><path class="st2" d="M384.3,130.3c0-8.3-4.1-16.2-10.9-20.9c-6.8-4.8-15.6-5.9-23.4-3l-128.6,47.4c-10,3.7-16.7,13.3-16.7,24v144.9   c-7.3-5.2-16.8-7.3-27.1-5.8c-11.6,1.7-23.2,7.7-32.4,17c-9.3,9.3-15.3,20.8-17,32.5c-1.8,12.4,1.5,23.5,9.3,31.2   c6.4,6.4,15,9.7,24.8,9.7c2.1,0,4.2-0.2,6.4-0.5c11.6-1.7,23.2-7.7,32.4-17c9.3-9.3,15.3-20.8,17-32.5c0.3-1.8,0.4-3.7,0.4-5.4   c0-0.1,0-125.6,0-125.6l151.9-56v91.2c-7.3-5.2-16.8-7.3-27.1-5.8c-11.6,1.7-23.2,7.7-32.4,17c-9.3,9.3-15.3,20.8-17,32.5   c-1.8,12.4,1.5,23.5,9.3,31.2c6.4,6.4,15,9.7,24.8,9.7c2.1,0,4.2-0.2,6.4-0.5c11.6-1.7,23.2-7.7,32.4-17c9.3-9.3,15.3-20.8,17-32.5   C384.1,294.4,384.3,130.3,384.3,130.3z M191.3,380c-7.2,7.2-15.9,11.8-24.6,13c-8,1.1-14.9-0.8-19.5-5.3   c-4.6-4.6-6.5-11.5-5.3-19.5c1.2-8.7,5.9-17.4,13-24.6c7.2-7.2,15.9-11.8,24.6-13c1.5-0.2,3-0.3,4.4-0.3c6.1,0,11.3,2,15.1,5.7   c3.7,3.7,5.6,8.9,5.7,15v0.2c0,1.4-0.1,2.8-0.3,4.3C203.1,364,198.5,372.8,191.3,380z M218.5,211.5v-33.7c0-4.9,3.1-9.3,7.6-10.9   l128.6-47.4c3.6-1.3,7.5-0.8,10.7,1.4c3.2,2.2,5,5.7,5,9.6v25.2L218.5,211.5z M357.1,318.9c-7.2,7.2-15.9,11.8-24.6,13   c-8,1.1-14.9-0.8-19.5-5.3s-6.5-11.5-5.3-19.5c1.2-8.7,5.9-17.4,13-24.6c7.2-7.2,15.9-11.8,24.6-13c1.5-0.2,3-0.3,4.4-0.3   c6.1,0,11.3,2,15.1,5.7c3.7,3.7,5.7,8.9,5.7,15v0.2c0,1.4-0.1,2.8-0.3,4.3C368.9,302.9,364.2,311.7,357.1,318.9z"/></g></svg>