<?xml version="1.0" ?><svg id="katman_1" style="enable-background:new 0 0 512 512;" version="1.1" viewBox="0 0 512 512" xml:space="preserve" xmlns="http://www.w3.org/2000/svg" xmlns:xlink="http://www.w3.org/1999/xlink"><style type="text/css">
	.st0{fill:#905AA1;}
	.st1{fill:#7F4997;}
	.st2{fill:#FFFFFF;}
</style><g><g><circle class="st0" cx="256" cy="256" r="250"/></g><path class="st1" d="M506,256c0-2.7-0.1-5.4-0.1-8.1c-0.3-0.4-0.6-0.7-0.9-1.1c-41.7-41.6-83.3-83.2-124.9-124.9   c-0.5-0.5-1-1-1.5-1.5c-13-12.1-28.3-16.4-45.6-12.6c-25.6,5.6-42.4,31.8-37,57.4c0.6,3,1.5,5.8,2.3,8.9   c-29.8,17.2-59.6,34.4-89.8,51.8c-1.4-1.5-2.7-3-4.1-4.3c-12-11.6-26.3-16.3-42.9-13.7c-22.4,3.6-39.5,22.3-41.1,45   c-1,14.6,3.7,27.4,13.9,38c2.4,2.5,5,5,7.5,7.5c64.6,64.6,129.2,129.2,193.8,193.8c0.2,0.2,0.4,0.4,0.6,0.6   C434.9,459.5,506,366,506,256z"/><path class="st2" d="M343.3,307.6c-15.7,0-29.6,7.4-38.7,18.8l-90.3-52.1c2.3-5.7,3.5-11.8,3.5-18.3c0-6.5-1.3-12.6-3.5-18.3   l90.3-52.1c9,11.4,23,18.8,38.7,18.8c27.1,0,49.2-22.1,49.2-49.2S370.4,106,343.3,106s-49.2,22.1-49.2,49.2   c0,6.5,1.3,12.6,3.5,18.3l-90.3,52.1c-9-11.5-23-18.8-38.7-18.8c-27.1,0-49.2,22.1-49.2,49.2c0,27.1,22.1,49.2,49.2,49.2   c15.7,0,29.6-7.4,38.7-18.8l90.3,52.1c-2.3,5.7-3.5,11.8-3.5,18.3c0,27.1,22.1,49.2,49.2,49.2s49.2-22.1,49.2-49.2   S370.4,307.6,343.3,307.6z M343.3,119.9c19.4,0,35.2,15.8,35.2,35.2s-15.8,35.2-35.2,35.2c-19.4,0-35.2-15.8-35.2-35.2   S323.9,119.9,343.3,119.9z M168.7,291.2c-19.4,0-35.2-15.8-35.2-35.2s15.8-35.2,35.2-35.2c19.4,0,35.2,15.8,35.2,35.2   S188.1,291.2,168.7,291.2z M343.3,392c-19.4,0-35.2-15.8-35.2-35.2s15.8-35.2,35.2-35.2c19.4,0,35.2,15.8,35.2,35.2   C378.5,376.2,362.7,392,343.3,392z"/></g></svg>